<?xml version="1.0" encoding="iso-8859-1"?>
<!-- Uploaded to: SVG Repo, www.svgrepo.com, Generator: SVG Repo Mixer Tools -->
<svg version="1.1" id="Layer_1" xmlns="http://www.w3.org/2000/svg" xmlns:xlink="http://www.w3.org/1999/xlink" 
	 viewBox="0 0 512 512" xml:space="preserve">
<path style="fill:#A72B1A;" d="M510.073,287.465C511.338,277.152,512,266.654,512,256C512,114.616,397.384,0,256,0S0,114.616,0,256
	c0,117.795,79.565,216.991,187.88,246.82L510.073,287.465z"/>
<path style="fill:#701C12;" d="M510.073,287.465l-69.308-69.308L256,114.592L71.235,218.157l61.774,61.774l-32.835,135.184
	l87.706,87.706C209.572,508.793,232.41,512,256,512C386.731,512,494.563,414.004,510.073,287.465z"/>
<polygon style="fill:#FDE59A;" points="440.765,218.157 256,33.391 215.406,224.253 256,415.114 411.826,415.114 411.826,218.157 
	"/>
<polygon style="fill:#FEF2CC;" points="71.235,218.157 100.174,218.157 100.174,415.114 256,415.114 256,33.391 "/>
<polygon style="fill:#A72B1A;" points="324.764,133.632 244.87,144.762 256,64.868 "/>
<polygon style="fill:#F9BE02;" points="389.565,198.433 311.652,209.564 324.764,133.632 "/>
<polygon style="fill:#FBD867;" points="324.764,133.632 324.764,198.433 244.87,209.564 256,133.632 "/>
<polygon style="fill:#F63341;" points="187.236,133.632 256,64.868 256,133.632 221.618,155.893 "/>
<polygon style="fill:#FB9DA4;" points="256,133.632 256,198.433 178.087,220.694 187.236,133.632 "/>
<polygon style="fill:#FCBEC2;" points="187.236,209.564 122.435,198.433 187.236,133.632 "/>
<polygon style="fill:#A72B1A;" points="256,198.433 244.87,274.365 389.565,263.235 389.565,198.433 "/>
<polygon style="fill:#F63341;" points="256,198.433 256,263.235 189.217,285.496 122.435,263.235 122.435,198.433 "/>
<polygon style="fill:#FBD867;" points="389.565,263.235 389.565,328.047 311.652,339.178 324.764,263.235 "/>
<polygon style="fill:#F63341;" points="324.764,263.235 324.764,328.047 244.87,339.178 256,263.235 "/>
<polygon style="fill:#F85C67;" points="256,263.235 256,328.047 178.087,339.178 187.236,263.235 "/>
<polygon style="fill:#FB9DA4;" points="187.236,263.235 187.236,339.178 122.435,328.047 122.435,263.235 "/>
<rect x="256" y="328.047" style="fill:#A72B1A;" width="133.565" height="64.801"/>
<rect x="122.435" y="328.047" style="fill:#F63341;" width="133.565" height="64.801"/>
</svg>